<svg version="1.2" baseProfile="tiny-ps" xmlns="http://www.w3.org/2000/svg" viewBox="0 0 1600 482" width="1600" height="482">
	<title>Amazon_logo-svg</title>
	<style>
		tspan { white-space:pre }
		.shp0 { fill: #ff9900 } 
		.shp1 { fill: #000000 } 
	</style>
	<path id="path8" fill-rule="evenodd" class="shp0" d="M992.61 376.91C899.63 445.42 764.86 481.97 648.83 481.97C486.14 481.97 339.67 421.82 228.86 321.78C220.15 313.91 227.95 303.19 238.4 309.31C357.99 378.86 505.85 420.7 658.58 420.7C761.59 420.7 874.91 399.4 979.1 355.19C994.84 348.51 1008 365.5 992.61 376.91" />
	<path id="path10" fill-rule="evenodd" class="shp0" d="M1031.26 332.71C1019.42 317.53 952.7 325.53 922.75 329.09C913.63 330.2 912.24 322.26 920.45 316.55C973.6 279.17 1060.79 289.96 1070.96 302.49C1081.13 315.09 1068.31 402.46 1018.38 444.16C1010.72 450.57 1003.4 447.16 1006.82 438.66C1018.03 410.68 1043.17 347.95 1031.26 332.71" />
	<path id="path12" fill-rule="evenodd" class="shp1" d="M924.84 52.63L924.84 16.29C924.84 10.79 929.02 7.1 934.04 7.1L1096.8 7.1C1102.02 7.1 1106.2 10.86 1106.2 16.29L1106.2 47.41C1106.13 52.63 1101.75 59.45 1093.95 70.25L1009.6 190.61C1040.94 189.85 1074.03 194.51 1102.44 210.53C1108.85 214.15 1110.59 219.44 1111.08 224.66L1111.08 263.44C1111.08 268.73 1105.23 274.92 1099.1 271.72C1049.02 245.47 982.51 242.62 927.14 272C921.5 275.06 915.58 268.94 915.58 263.64L915.58 226.82C915.58 220.9 915.65 210.8 921.57 201.82L1019.28 61.75L934.24 61.75C929.02 61.75 924.84 58.06 924.84 52.63ZM281.58 279.38C276.85 279.03 273.09 275.48 272.74 270.95L272.74 16.92C272.74 11.84 276.99 7.8 282.28 7.8L328.46 7.8C333.26 8.01 337.09 11.7 337.44 16.29L337.44 49.5L338.35 49.5C350.39 17.4 373.03 2.44 403.53 2.44C434.53 2.44 453.89 17.4 467.82 49.5C479.8 17.4 507.03 2.44 536.21 2.44C556.97 2.44 579.67 11 593.53 30.21C609.2 51.59 606 82.64 606 109.86L605.93 270.19C605.93 275.27 601.68 279.38 596.39 279.38L546.94 279.38C541.99 279.03 538.02 275.06 538.02 270.19L538.02 135.55C538.02 124.83 539 98.09 536.63 87.93C532.94 70.87 521.86 66.07 507.52 66.07C495.54 66.07 483 74.07 477.92 86.88C472.83 99.69 473.32 121.14 473.32 135.55L473.32 270.19C473.32 275.27 469.07 279.38 463.78 279.38L414.33 279.38C409.32 279.03 405.42 275.06 405.42 270.19L405.35 135.55C405.35 107.21 410.01 65.51 374.84 65.51C339.25 65.51 340.64 106.17 340.64 135.55L340.64 270.19C340.64 275.27 336.39 279.38 331.1 279.38L281.58 279.38ZM1359.58 145.71C1359.58 223.2 1315.63 284.67 1246.33 284.67C1174.18 284.67 1134.9 221.59 1134.9 143C1134.9 63.91 1174.67 2.44 1246.33 2.44C1319.81 2.44 1359.58 65.51 1359.58 145.71ZM1207.96 134.99C1207.96 166.04 1207.47 232.32 1246.33 232.32C1284.71 232.32 1286.52 178.85 1286.52 146.27C1286.52 124.83 1285.61 99.21 1279.14 78.88C1273.56 61.19 1262.49 54.3 1246.75 54.3C1210.26 54.3 1207.96 104.01 1207.96 134.99ZM1405.55 279.38C1400.6 279.03 1396.63 275.06 1396.63 270.19L1396.56 16.08C1396.98 11.42 1401.09 7.8 1406.1 7.8L1452 7.8C1456.32 8.01 1459.87 10.93 1460.85 14.9L1460.85 53.75L1461.75 53.75C1475.61 19.01 1495.04 2.44 1529.24 2.44C1551.46 2.44 1573.12 10.44 1587.05 32.37C1600 52.7 1600 86.88 1600 111.46L1600 271.37C1599.44 275.83 1595.33 279.38 1590.46 279.38L1540.8 279.38C1536.27 279.03 1532.51 275.69 1532.02 271.37L1532.02 133.39C1532.02 105.61 1535.23 64.95 1501.03 64.95C1488.98 64.95 1477.91 73.03 1472.41 85.28C1465.44 100.81 1464.54 116.26 1464.54 133.39L1464.54 270.19C1464.47 275.27 1460.15 279.38 1454.86 279.38L1405.55 279.38ZM845.03 278.68L845.03 278.68C845.03 278.68 845.03 278.68 845.03 278.68L845.03 278.68ZM833.33 279.87C816.89 266.22 813.89 259.88 804.91 246.87C777.75 274.57 758.46 282.86 723.28 282.86C681.57 282.86 649.18 257.17 649.18 205.72C649.18 165.55 670.91 138.19 701.97 124.83C728.86 112.99 766.4 110.9 795.09 107.63L795.09 101.23C795.09 89.46 796 75.54 789.03 65.37C783.04 56.25 771.48 52.49 761.24 52.49C742.37 52.49 725.58 62.17 721.47 82.22C720.64 86.67 717.36 91.06 712.84 91.27L664.85 86.12C660.81 85.21 656.28 81.94 657.47 75.74C668.47 17.54 721.12 0 768.21 0C792.3 0 823.78 6.41 842.8 24.65C866.9 47.13 864.6 77.14 864.6 109.79L864.6 186.93C864.6 210.11 874.21 220.27 883.26 232.8C886.4 237.26 887.09 242.62 883.05 245.96C872.95 254.39 854.99 270.05 845.1 278.82L845.03 278.68C841.75 281.61 837.02 281.81 833.33 279.87ZM795.09 158.03L795.09 147.31C759.22 147.31 721.4 154.97 721.4 197.16C721.4 218.53 732.55 233.01 751.56 233.01C765.42 233.01 777.96 224.45 785.83 210.53C795.58 193.4 795.09 177.32 795.09 158.03ZM195.85 278.68C192.57 281.61 187.84 281.81 184.15 279.87C167.71 266.22 164.78 259.88 155.73 246.87C128.57 274.57 109.35 282.86 74.1 282.86C32.46 282.86 0 257.17 0 205.72C0 165.55 21.8 138.19 52.79 124.83C79.68 112.99 117.22 110.9 145.91 107.63L145.91 101.23C145.91 89.46 146.82 75.54 139.92 65.37C133.86 56.25 122.3 52.49 112.13 52.49C93.26 52.49 76.4 62.17 72.29 82.22C71.46 86.67 68.18 91.06 63.73 91.27L15.67 86.12C11.63 85.21 7.17 81.94 8.29 75.74C19.36 17.54 71.95 0 119.03 0C143.12 0 174.6 6.41 193.62 24.65C217.72 47.13 215.42 77.14 215.42 109.79L215.42 186.93C215.42 210.11 225.03 220.27 234.08 232.8C237.29 237.26 237.98 242.62 233.94 245.96C223.85 254.39 205.88 270.05 195.99 278.82L195.85 278.68L195.85 278.68ZM145.91 158.03L145.91 147.31C110.11 147.31 72.29 154.97 72.29 197.16C72.29 218.53 83.37 233.01 102.38 233.01C116.31 233.01 128.78 224.45 136.65 210.53C146.4 193.4 145.91 177.32 145.91 158.03Z" />
</svg>